HIERARCHY
ROOT Hips
{
	OFFSET	0.00	0.00	0.00
	CHANNELS 6 Xposition Yposition Zposition Zrotation Xrotation Yrotation
	JOINT LeftUpLeg
	{
		OFFSET	 0.126116	-0.014019	-0.065224
		CHANNELS 3 Zrotation Xrotation Yrotation
		JOINT LeftLeg
		{
			OFFSET	 0.000000	 0.000000	 0.569914
			CHANNELS 3 Zrotation Xrotation Yrotation
			JOINT LeftFoot
			{
				OFFSET	 0.000000	 0.000000	 0.544423
				CHANNELS 3 Zrotation Xrotation Yrotation
				JOINT LeftToeBase
				{
					OFFSET	 0.000000	 0.000000	 0.207117
					CHANNELS 3 Zrotation Xrotation Yrotation
					End Site
					{
						OFFSET	 0.000000	 0.000000	 0.207117
					}
				}
			}
		}
	}
	JOINT RightUpLeg
	{
		OFFSET	-0.124023	-0.008373	-0.065224
		CHANNELS 3 Zrotation Xrotation Yrotation
		JOINT RightLeg
		{
			OFFSET	 0.000000	 0.000000	 0.570047
			CHANNELS 3 Zrotation Xrotation Yrotation
			JOINT RightFoot
			{
				OFFSET	 0.000000	 0.000000	 0.544354
				CHANNELS 3 Zrotation Xrotation Yrotation
				JOINT RightToeBase
				{
					OFFSET	 0.000000	 0.000000	 0.207540
					CHANNELS 3 Zrotation Xrotation Yrotation
					End Site
					{
						OFFSET	 0.000000	 0.000000	 0.207540
					}
				}
			}
		}
	}
	JOINT Spine
	{
		OFFSET	 0.000184	-0.007763	 0.117403
		CHANNELS 3 Zrotation Xrotation Yrotation
		JOINT Spine1
		{
			OFFSET	 0.000000	 0.000000	 0.137269
			CHANNELS 3 Zrotation Xrotation Yrotation
			JOINT Spine2
			{
				OFFSET	 0.000000	 0.000000	 0.156879
				CHANNELS 3 Zrotation Xrotation Yrotation
				JOINT LeftShoulder
				{
					OFFSET	 0.080501	-0.002496	 0.160144
					CHANNELS 3 Zrotation Xrotation Yrotation
					JOINT LeftArm
					{
						OFFSET	 0.000000	 0.000000	 0.164363
						CHANNELS 3 Zrotation Xrotation Yrotation
						JOINT LeftForeArm
						{
							OFFSET	 0.000000	 0.000000	 0.364576
							CHANNELS 3 Zrotation Xrotation Yrotation
							JOINT LeftHand
							{
								OFFSET	 0.000000	 0.000000	 0.360812
								CHANNELS 3 Zrotation Xrotation Yrotation
								JOINT LeftHandIndex1
								{
									OFFSET	 0.000000	 0.000000	 0.086006
									CHANNELS 3 Zrotation Xrotation Yrotation
									JOINT LeftHandIndex2
									{
										OFFSET	 0.000000	 0.000000	 0.047236
										CHANNELS 3 Zrotation Xrotation Yrotation
										JOINT LeftHandIndex3
										{
											OFFSET	-0.004284	-0.000551	 0.038166
											CHANNELS 3 Zrotation Xrotation Yrotation
											End Site
											{
												OFFSET	-0.004284	-0.000551	 0.038166
											}
										}
									}
								}
							}
						}
					}
				}
				JOINT Neck
				{
					OFFSET	 0.000000	 0.000000	 0.176489
					CHANNELS 3 Zrotation Xrotation Yrotation
					JOINT Head
					{
						OFFSET	 0.000000	-0.001747	 0.077940
						CHANNELS 3 Zrotation Xrotation Yrotation
						End Site
						{
							OFFSET	 0.000000	-0.001747	 0.077940
						}
					}
				}
				JOINT RightShoulder
				{
					OFFSET	-0.080363	 0.000306	 0.159706
					CHANNELS 3 Zrotation Xrotation Yrotation
					JOINT RightArm
					{
						OFFSET	 0.000000	 0.000000	 0.164196
						CHANNELS 3 Zrotation Xrotation Yrotation
						JOINT RightForeArm
						{
							OFFSET	 0.000000	 0.000000	 0.365611
							CHANNELS 3 Zrotation Xrotation Yrotation
							JOINT RightHand
							{
								OFFSET	 0.000000	 0.000000	 0.360648
								CHANNELS 3 Zrotation Xrotation Yrotation
								JOINT RightHandIndex1
								{
									OFFSET	 0.000000	 0.000000	 0.069977
									CHANNELS 3 Zrotation Xrotation Yrotation
									JOINT RightHandIndex2
									{
										OFFSET	 0.000000	 0.000000	 0.052305
										CHANNELS 3 Zrotation Xrotation Yrotation
										JOINT RightHandIndex3
										{
											OFFSET	 0.009002	-0.000782	 0.042196
											CHANNELS 3 Zrotation Xrotation Yrotation
											End Site
											{
												OFFSET	 0.009002	-0.000782	 0.042196
											}
										}
									}
								}
							}
						}
					}
				}
			}
		}
	}
}
MOTION
Frames:    7
Frame Time: 0.03333334
 0.009964	 0.018190	 1.190103	 5.502181	-1.026760	-3.695239	 19.966240	-10.025580	-176.354200	 1.185682	-41.425580	 0.551141	 83.210750	 84.135590	-87.099820	-2.368916	 31.695610	-0.071748	-28.239150	-35.800520	-177.587200	 11.071100	-49.120140	 8.998297	-0.643322	 78.239140	 6.661675	 2.358968	 33.000720	 0.103247	-6.820619	 8.571273	 0.670737	 1.846508	 3.098068	 3.509352	-9.613681	-2.560337	-4.366733	-94.052460	 58.971670	 175.144200	 10.055050	 25.653290	-41.699730	-5.594949	 0.148943	-2.704023	 0.779074	-7.793278	-7.959320	-4.866919	 19.326100	-2.796406	-3.873195	 21.579240	 2.194286	-4.805033	 5.583560	 0.144740	-0.050975	-5.096215	 0.214114	-11.427470	 1.728537	 1.895916	 89.737520	 61.719420	 179.893400	-18.745060	 51.035090	 7.100508	 2.068076	-1.421863	 14.491960	-4.623845	 7.432507	 0.365659	 6.282718	 24.007230	-0.545233	 1.989135	 43.848960	-7.085273	 0.701239	 23.503360	 3.480553
 0.008080	-0.025988	 1.181682	 6.159114	-0.344541	-3.802883	 20.245850	-8.857746	-177.346500	 1.487252	-42.092610	 0.760567	 107.811600	 84.877420	-111.702400	-2.367399	 31.942960	-0.077381	-32.109180	-38.345860	 179.149800	 10.914650	-42.846490	 7.997111	-10.591240	 79.271950	 16.216690	 2.359590	 32.907940	 0.101089	-12.373380	 8.128527	 0.624457	 1.696253	 3.157942	 3.581825	-9.714813	-2.591498	-4.365160	-94.232820	 58.992540	 174.756900	 8.166217	 22.784890	-41.954640	-8.540763	 0.438778	-4.092657	 0.970697	-8.142661	-8.373118	-4.858428	 19.533160	-2.807984	-3.861460	 21.728640	 2.182363	-4.801111	 5.629812	 0.142031	-0.018140	-5.132270	 0.268994	-11.420870	 1.809176	 1.817594	 89.654410	 61.850630	 179.693300	-18.460340	 52.149800	 5.228507	 3.793515	-0.747322	 15.660420	-4.620874	 8.012290	-0.083669	 6.262044	 22.622300	-0.572982	 2.138765	 42.568180	-7.217500	 1.003542	 22.143260	 3.333638
 0.003653	-0.113239	 1.160377	 6.613605	 0.583952	-4.369241	 21.398220	-5.605566	-179.416700	 1.786507	-42.758600	 0.973526	 156.632400	 83.995800	-160.143400	-2.359750	 33.121250	-0.104479	-35.475150	-42.072940	 174.096200	 10.338380	-32.383790	 5.996492	-30.406920	 82.218880	 34.771630	 2.354068	 33.701700	 0.119616	-22.097700	 7.277447	 0.989810	 1.453034	 3.797599	 3.500796	-9.739646	-2.700215	-4.265158	-94.458470	 58.965630	 174.280200	 4.748363	 18.685290	-42.513530	-14.684590	 1.349780	-6.695573	 0.146821	-8.732346	-7.564308	-4.828552	 20.162180	-2.822381	-3.828331	 22.147380	 2.148709	-4.774333	 5.944465	 0.123510	 0.019068	-5.264722	 0.339418	-11.365740	 1.930518	 1.763372	 89.461110	 62.036060	 179.223800	-17.197220	 53.480190	 3.225702	 6.328097	 0.854455	 14.790350	-4.819526	 8.978303	-2.126384	 6.202283	 19.370390	-0.696380	 2.494898	 39.255730	-7.527838	 1.709512	 18.846800	 3.014529
-0.002179	-0.183720	 1.135468	 6.992410	 0.683578	-4.655971	 22.244820	-2.546698	 178.075400	 2.214327	-43.650450	 1.285228	-178.797700	 82.871790	 175.766000	-2.332236	 36.622880	-0.188542	-37.780120	-48.078560	 169.959700	 11.343690	-32.889840	 6.641080	-61.358120	 84.287860	 64.938040	 2.335464	 36.059640	 0.176316	-30.023480	 7.349900	 1.166296	 1.297828	 3.834520	 3.479985	-9.592886	-2.646445	-4.175076	-94.542760	 58.941400	 174.104600	 2.189597	 17.016400	-42.850330	-19.158810	 2.517665	-8.880987	-0.814893	-9.763646	-7.950470	-4.847794	 20.511070	-3.037216	-3.788013	 22.650750	 2.107769	-4.721323	 6.563408	 0.086615	 0.113042	-5.404709	 0.344836	-11.101340	 2.156943	 1.469186	 89.358100	 61.933700	 178.978600	-15.325310	 53.836250	 0.625303	 8.614965	 2.356408	 15.349200	-4.375854	 8.807769	-4.160458	 6.165808	 16.102840	-0.663871	 2.878112	 35.223320	-7.853601	 2.372763	 15.602840	 2.747432
-0.011314	-0.268578	 1.111990	 7.386678	 0.375309	-3.895833	 22.945330	 1.409376	 173.924700	 2.354643	-42.637680	 1.356317	-133.283900	 85.111360	 131.863100	-2.220823	 45.605900	-0.437626	-39.238240	-50.161270	 166.750000	 9.149023	-34.912980	 5.739326	-41.861630	 77.233950	 50.017660	 2.339912	 35.532780	 0.163427	-36.783210	 7.426228	 0.533062	 1.026305	 3.576323	 3.221307	-9.384343	-2.236925	-4.035779	-94.482230	 59.298300	 174.174600	 0.491651	 16.344050	-42.521520	-23.388140	 3.946562	-10.837080	-2.103576	-10.868930	-8.719648	-4.886500	 20.666110	-3.310113	-3.758581	 23.014100	 2.077881	-4.648465	 7.405124	 0.035434	 0.225545	-5.478246	 0.257548	-10.669690	 2.488061	 1.522647	 89.354700	 61.525520	 178.985500	-13.759980	 53.267420	-0.173192	 11.344180	 3.924929	 13.156110	-4.188694	 8.038419	-5.556737	 6.233603	 12.885970	-0.166821	 3.083191	 32.840350	-8.023751	 2.971542	 12.561420	 2.535544
-0.020468	-0.358989	 1.095733	 8.542871	-0.593530	-2.592962	 23.753400	 5.178416	 168.365700	-0.339130	-42.591370	-0.468235	-47.434890	 80.054620	 51.698840	-1.949465	 56.752240	-0.868185	-36.876830	-47.877880	 167.818100	 7.441810	-38.622880	 5.139609	-34.722740	 66.897590	 50.315360	 2.333942	 36.234410	 0.180625	-42.037780	 7.762280	-0.671437	 0.346709	 3.165888	 2.833236	-9.247210	-1.583102	-3.937099	-94.393550	 59.064470	 174.402800	 0.274083	 15.535880	-41.543460	-27.510920	 5.501037	-12.478760	-2.887630	-9.852717	-8.436227	-4.896167	 20.917630	-3.450490	-3.734423	 23.309730	 2.053358	-4.568366	 8.318545	-0.021457	 0.367442	-5.414316	 0.286971	-10.262840	 2.998034	 2.041932	 89.218220	 61.414140	 178.667000	-12.658500	 52.644100	-0.456944	 14.466780	 5.395563	 12.578080	-4.276358	 7.238060	-5.246542	 6.340167	 9.921648	 0.371177	 3.305145	 30.065930	-8.204029	 3.428504	 10.175500	 2.393589
-0.032293	-0.455495	 1.092286	 10.262360	-1.397421	-1.115439	 23.516550	 5.582251	 163.158400	 1.420111	-46.271680	 0.771365	-17.170890	 62.532180	 28.499170	-1.076154	 70.503160	-1.925910	-39.709320	-44.708990	 167.078400	 9.680273	-44.073010	 7.302164	-26.554970	 63.703640	 42.759350	 2.352097	 33.972930	 0.126016	-44.406170	 7.910950	-1.594422	-0.388611	 2.774749	 1.862320	-9.229128	-0.863113	-3.529373	-94.224240	 59.423170	 174.710200	 1.608421	 15.895930	-40.857300	-30.003920	 7.043110	-13.797370	-2.520914	-7.809588	-8.992700	-4.813686	 21.285720	-3.084223	-3.670240	 24.083700	 1.988223	-4.505513	 9.026580	-0.066548	 0.392210	-5.341773	 0.231420	-10.029740	 3.665200	 2.255964	 89.022710	 60.776790	 178.243800	-11.896590	 51.863970	-0.643647	 18.718410	 6.957112	 13.897110	-3.109954	 6.438573	-3.438401	 6.374153	 8.651987	 0.522658	 3.390111	 28.946810	-8.271864	 3.651170	 8.994678	 2.330863
